<mxfile host="app.diagrams.net" agent="Mozilla/5.0 (Windows NT 10.0; Win64; x64) AppleWebKit/537.36 (KHTML, like Gecko) Chrome/130.0.0.0 Safari/537.36" version="24.8.3" pages="2">
  <diagram name="useCase" id="Ls2bzayyUG1DLT7uLyJ-">
    <mxGraphModel dx="794" dy="492" grid="1" gridSize="10" guides="1" tooltips="1" connect="1" arrows="1" fold="1" page="1" pageScale="1" pageWidth="1169" pageHeight="827" math="0" shadow="0">
      <root>
        <mxCell id="0" />
        <mxCell id="1" parent="0" />
        <mxCell id="PBIBhDTNvAsgROowIsOv-17" style="rounded=0;orthogonalLoop=1;jettySize=auto;html=1;exitX=1;exitY=0.3333333333333333;exitDx=0;exitDy=0;exitPerimeter=0;entryX=0;entryY=0.5;entryDx=0;entryDy=0;" parent="1" source="PBIBhDTNvAsgROowIsOv-1" target="PBIBhDTNvAsgROowIsOv-9" edge="1">
          <mxGeometry relative="1" as="geometry" />
        </mxCell>
        <mxCell id="PBIBhDTNvAsgROowIsOv-25" style="rounded=0;orthogonalLoop=1;jettySize=auto;html=1;exitX=1;exitY=0.3333333333333333;exitDx=0;exitDy=0;exitPerimeter=0;entryX=0;entryY=0.5;entryDx=0;entryDy=0;" parent="1" source="PBIBhDTNvAsgROowIsOv-1" target="PBIBhDTNvAsgROowIsOv-14" edge="1">
          <mxGeometry relative="1" as="geometry" />
        </mxCell>
        <mxCell id="PBIBhDTNvAsgROowIsOv-27" style="rounded=0;orthogonalLoop=1;jettySize=auto;html=1;exitX=1;exitY=0.3333333333333333;exitDx=0;exitDy=0;exitPerimeter=0;entryX=0;entryY=0.5;entryDx=0;entryDy=0;" parent="1" source="PBIBhDTNvAsgROowIsOv-1" target="PBIBhDTNvAsgROowIsOv-8" edge="1">
          <mxGeometry relative="1" as="geometry" />
        </mxCell>
        <mxCell id="PBIBhDTNvAsgROowIsOv-1" value="Admin" style="shape=umlActor;verticalLabelPosition=bottom;verticalAlign=top;html=1;outlineConnect=0;" parent="1" vertex="1">
          <mxGeometry x="250" y="310" width="30" height="60" as="geometry" />
        </mxCell>
        <mxCell id="PBIBhDTNvAsgROowIsOv-18" style="rounded=0;orthogonalLoop=1;jettySize=auto;html=1;exitX=0;exitY=0.3333333333333333;exitDx=0;exitDy=0;exitPerimeter=0;entryX=1;entryY=0.5;entryDx=0;entryDy=0;" parent="1" source="PBIBhDTNvAsgROowIsOv-6" target="PBIBhDTNvAsgROowIsOv-7" edge="1">
          <mxGeometry relative="1" as="geometry" />
        </mxCell>
        <mxCell id="PBIBhDTNvAsgROowIsOv-19" style="rounded=0;orthogonalLoop=1;jettySize=auto;html=1;exitX=0;exitY=0.3333333333333333;exitDx=0;exitDy=0;exitPerimeter=0;entryX=1;entryY=0.5;entryDx=0;entryDy=0;" parent="1" source="PBIBhDTNvAsgROowIsOv-6" target="PBIBhDTNvAsgROowIsOv-13" edge="1">
          <mxGeometry relative="1" as="geometry" />
        </mxCell>
        <mxCell id="PBIBhDTNvAsgROowIsOv-20" style="rounded=0;orthogonalLoop=1;jettySize=auto;html=1;exitX=0;exitY=0.3333333333333333;exitDx=0;exitDy=0;exitPerimeter=0;entryX=1;entryY=0.5;entryDx=0;entryDy=0;" parent="1" source="PBIBhDTNvAsgROowIsOv-6" target="PBIBhDTNvAsgROowIsOv-14" edge="1">
          <mxGeometry relative="1" as="geometry" />
        </mxCell>
        <mxCell id="PBIBhDTNvAsgROowIsOv-26" style="rounded=0;orthogonalLoop=1;jettySize=auto;html=1;exitX=0;exitY=0.3333333333333333;exitDx=0;exitDy=0;exitPerimeter=0;entryX=1;entryY=0.5;entryDx=0;entryDy=0;" parent="1" source="PBIBhDTNvAsgROowIsOv-6" target="PBIBhDTNvAsgROowIsOv-8" edge="1">
          <mxGeometry relative="1" as="geometry" />
        </mxCell>
        <mxCell id="PBIBhDTNvAsgROowIsOv-6" value="User" style="shape=umlActor;verticalLabelPosition=bottom;verticalAlign=top;html=1;outlineConnect=0;" parent="1" vertex="1">
          <mxGeometry x="530" y="310" width="30" height="60" as="geometry" />
        </mxCell>
        <mxCell id="PBIBhDTNvAsgROowIsOv-7" value="register" style="ellipse;whiteSpace=wrap;html=1;" parent="1" vertex="1">
          <mxGeometry x="360" y="100" width="100" height="50" as="geometry" />
        </mxCell>
        <mxCell id="PBIBhDTNvAsgROowIsOv-8" value="login" style="ellipse;whiteSpace=wrap;html=1;" parent="1" vertex="1">
          <mxGeometry x="360" y="200" width="100" height="50" as="geometry" />
        </mxCell>
        <mxCell id="PBIBhDTNvAsgROowIsOv-9" value="manage" style="ellipse;whiteSpace=wrap;html=1;" parent="1" vertex="1">
          <mxGeometry x="360" y="300" width="100" height="50" as="geometry" />
        </mxCell>
        <mxCell id="PBIBhDTNvAsgROowIsOv-13" value="create order" style="ellipse;whiteSpace=wrap;html=1;" parent="1" vertex="1">
          <mxGeometry x="360" y="389" width="100" height="50" as="geometry" />
        </mxCell>
        <mxCell id="PBIBhDTNvAsgROowIsOv-14" value="logout" style="ellipse;whiteSpace=wrap;html=1;" parent="1" vertex="1">
          <mxGeometry x="360" y="480" width="100" height="50" as="geometry" />
        </mxCell>
        <mxCell id="ah2DOJyxFixf9z7omzIT-4" value="" style="html=1;verticalAlign=bottom;labelBackgroundColor=none;endArrow=open;endFill=0;dashed=1;rounded=0;exitX=0.5;exitY=1;exitDx=0;exitDy=0;entryX=0.5;entryY=0;entryDx=0;entryDy=0;" parent="1" source="PBIBhDTNvAsgROowIsOv-7" edge="1" target="PBIBhDTNvAsgROowIsOv-8">
          <mxGeometry x="1" width="160" relative="1" as="geometry">
            <mxPoint x="330" y="60" as="sourcePoint" />
            <mxPoint x="410" y="120" as="targetPoint" />
            <mxPoint as="offset" />
          </mxGeometry>
        </mxCell>
        <mxCell id="ah2DOJyxFixf9z7omzIT-5" value="include" style="edgeLabel;html=1;align=center;verticalAlign=middle;resizable=0;points=[];" parent="ah2DOJyxFixf9z7omzIT-4" vertex="1" connectable="0">
          <mxGeometry x="-0.2331" y="1" relative="1" as="geometry">
            <mxPoint as="offset" />
          </mxGeometry>
        </mxCell>
      </root>
    </mxGraphModel>
  </diagram>
  <diagram id="wweNjxVhWRPUDFzTzey8" name="activityDiagram">
    <mxGraphModel dx="3970" dy="2460" grid="1" gridSize="10" guides="1" tooltips="1" connect="1" arrows="1" fold="1" page="1" pageScale="1" pageWidth="1654" pageHeight="1169" math="0" shadow="0">
      <root>
        <mxCell id="0" />
        <mxCell id="1" parent="0" />
        <mxCell id="heNB-cjnZlvik8QZEkDk-1" value="Auth" style="text;html=1;align=center;verticalAlign=middle;whiteSpace=wrap;rounded=0;fontSize=100;" parent="1" vertex="1">
          <mxGeometry x="675" y="20" width="305" height="110" as="geometry" />
        </mxCell>
        <mxCell id="heNB-cjnZlvik8QZEkDk-3" value="Admin" style="text;html=1;align=center;verticalAlign=middle;whiteSpace=wrap;rounded=0;fontSize=50;" parent="1" vertex="1">
          <mxGeometry x="307" y="220" width="150" height="70" as="geometry" />
        </mxCell>
        <mxCell id="heNB-cjnZlvik8QZEkDk-4" value="User" style="text;html=1;align=center;verticalAlign=middle;whiteSpace=wrap;rounded=0;fontSize=50;" parent="1" vertex="1">
          <mxGeometry x="1247" y="220" width="150" height="70" as="geometry" />
        </mxCell>
        <mxCell id="heNB-cjnZlvik8QZEkDk-5" value="" style="shape=ellipse;fillColor=#0065FF;strokeColor=none;html=1;sketch=0;" parent="1" vertex="1">
          <mxGeometry x="574" y="290" width="10" height="10" as="geometry" />
        </mxCell>
        <mxCell id="heNB-cjnZlvik8QZEkDk-6" value="Admin" style="swimlane;whiteSpace=wrap;html=1;" parent="1" vertex="1">
          <mxGeometry x="180" y="300" width="200" height="470" as="geometry" />
        </mxCell>
        <mxCell id="heNB-cjnZlvik8QZEkDk-9" value="Input username &amp;amp; password" style="rounded=0;whiteSpace=wrap;html=1;" parent="heNB-cjnZlvik8QZEkDk-6" vertex="1">
          <mxGeometry x="40" y="194" width="120" height="60" as="geometry" />
        </mxCell>
        <mxCell id="heNB-cjnZlvik8QZEkDk-10" style="edgeStyle=orthogonalEdgeStyle;rounded=0;orthogonalLoop=1;jettySize=auto;html=1;exitX=0.5;exitY=1;exitDx=0;exitDy=0;entryX=0.5;entryY=0;entryDx=0;entryDy=0;" parent="heNB-cjnZlvik8QZEkDk-6" source="heNB-cjnZlvik8QZEkDk-11" target="heNB-cjnZlvik8QZEkDk-13" edge="1">
          <mxGeometry relative="1" as="geometry" />
        </mxCell>
        <mxCell id="heNB-cjnZlvik8QZEkDk-11" value="" style="ellipse;html=1;shape=startState;fillColor=#000000;strokeColor=#ff0000;" parent="heNB-cjnZlvik8QZEkDk-6" vertex="1">
          <mxGeometry x="85" y="32" width="30" height="30" as="geometry" />
        </mxCell>
        <mxCell id="heNB-cjnZlvik8QZEkDk-27" style="edgeStyle=orthogonalEdgeStyle;rounded=0;orthogonalLoop=1;jettySize=auto;html=1;exitX=0.5;exitY=1;exitDx=0;exitDy=0;entryX=0.5;entryY=0;entryDx=0;entryDy=0;" parent="heNB-cjnZlvik8QZEkDk-6" source="heNB-cjnZlvik8QZEkDk-13" target="heNB-cjnZlvik8QZEkDk-9" edge="1">
          <mxGeometry relative="1" as="geometry" />
        </mxCell>
        <mxCell id="heNB-cjnZlvik8QZEkDk-13" value="Halaman login" style="rounded=0;whiteSpace=wrap;html=1;" parent="heNB-cjnZlvik8QZEkDk-6" vertex="1">
          <mxGeometry x="40" y="92" width="120" height="60" as="geometry" />
        </mxCell>
        <mxCell id="heNB-cjnZlvik8QZEkDk-14" style="edgeStyle=orthogonalEdgeStyle;rounded=0;orthogonalLoop=1;jettySize=auto;html=1;exitX=0.5;exitY=1;exitDx=0;exitDy=0;entryX=0.5;entryY=0;entryDx=0;entryDy=0;" parent="heNB-cjnZlvik8QZEkDk-6" source="heNB-cjnZlvik8QZEkDk-15" target="heNB-cjnZlvik8QZEkDk-16" edge="1">
          <mxGeometry relative="1" as="geometry" />
        </mxCell>
        <mxCell id="heNB-cjnZlvik8QZEkDk-15" value="Admin dashboard" style="rounded=0;whiteSpace=wrap;html=1;" parent="heNB-cjnZlvik8QZEkDk-6" vertex="1">
          <mxGeometry x="40" y="340" width="120" height="60" as="geometry" />
        </mxCell>
        <mxCell id="heNB-cjnZlvik8QZEkDk-16" value="" style="ellipse;html=1;shape=endState;fillColor=#000000;strokeColor=#ff0000;" parent="heNB-cjnZlvik8QZEkDk-6" vertex="1">
          <mxGeometry x="89.5" y="430" width="21" height="20" as="geometry" />
        </mxCell>
        <mxCell id="heNB-cjnZlvik8QZEkDk-17" value="Sistem" style="swimlane;whiteSpace=wrap;html=1;startSize=23;" parent="1" vertex="1">
          <mxGeometry x="380" y="300" width="200" height="470" as="geometry" />
        </mxCell>
        <mxCell id="heNB-cjnZlvik8QZEkDk-18" value="User valid?" style="rhombus;whiteSpace=wrap;html=1;" parent="heNB-cjnZlvik8QZEkDk-17" vertex="1">
          <mxGeometry x="60" y="260" width="80" height="80" as="geometry" />
        </mxCell>
        <mxCell id="heNB-cjnZlvik8QZEkDk-19" style="edgeStyle=orthogonalEdgeStyle;rounded=0;orthogonalLoop=1;jettySize=auto;html=1;exitX=0.5;exitY=1;exitDx=0;exitDy=0;entryX=0;entryY=0.5;entryDx=0;entryDy=0;" parent="1" source="heNB-cjnZlvik8QZEkDk-9" target="heNB-cjnZlvik8QZEkDk-18" edge="1">
          <mxGeometry relative="1" as="geometry" />
        </mxCell>
        <mxCell id="heNB-cjnZlvik8QZEkDk-23" style="edgeStyle=orthogonalEdgeStyle;rounded=0;orthogonalLoop=1;jettySize=auto;html=1;exitX=0.5;exitY=1;exitDx=0;exitDy=0;entryX=1;entryY=0.5;entryDx=0;entryDy=0;" parent="1" source="heNB-cjnZlvik8QZEkDk-18" target="heNB-cjnZlvik8QZEkDk-15" edge="1">
          <mxGeometry relative="1" as="geometry" />
        </mxCell>
        <mxCell id="heNB-cjnZlvik8QZEkDk-24" value="Yes" style="edgeLabel;html=1;align=center;verticalAlign=middle;resizable=0;points=[];" parent="heNB-cjnZlvik8QZEkDk-23" vertex="1" connectable="0">
          <mxGeometry x="0.0003" y="-1" relative="1" as="geometry">
            <mxPoint as="offset" />
          </mxGeometry>
        </mxCell>
        <mxCell id="heNB-cjnZlvik8QZEkDk-25" style="edgeStyle=orthogonalEdgeStyle;rounded=0;orthogonalLoop=1;jettySize=auto;html=1;exitX=0.5;exitY=0;exitDx=0;exitDy=0;entryX=1;entryY=0.5;entryDx=0;entryDy=0;" parent="1" source="heNB-cjnZlvik8QZEkDk-18" target="heNB-cjnZlvik8QZEkDk-13" edge="1">
          <mxGeometry relative="1" as="geometry" />
        </mxCell>
        <mxCell id="heNB-cjnZlvik8QZEkDk-26" value="No" style="edgeLabel;html=1;align=center;verticalAlign=middle;resizable=0;points=[];" parent="heNB-cjnZlvik8QZEkDk-25" vertex="1" connectable="0">
          <mxGeometry x="-0.3278" relative="1" as="geometry">
            <mxPoint as="offset" />
          </mxGeometry>
        </mxCell>
        <mxCell id="heNB-cjnZlvik8QZEkDk-28" value="" style="shape=ellipse;fillColor=#0065FF;strokeColor=none;html=1;sketch=0;" parent="1" vertex="1">
          <mxGeometry x="1514" y="286" width="10" height="10" as="geometry" />
        </mxCell>
        <mxCell id="heNB-cjnZlvik8QZEkDk-29" value="User" style="swimlane;whiteSpace=wrap;html=1;" parent="1" vertex="1">
          <mxGeometry x="1120" y="296" width="200" height="748" as="geometry" />
        </mxCell>
        <mxCell id="heNB-cjnZlvik8QZEkDk-30" style="edgeStyle=orthogonalEdgeStyle;rounded=0;orthogonalLoop=1;jettySize=auto;html=1;exitX=0.5;exitY=1;exitDx=0;exitDy=0;entryX=0.5;entryY=0;entryDx=0;entryDy=0;" parent="heNB-cjnZlvik8QZEkDk-29" source="heNB-cjnZlvik8QZEkDk-31" target="heNB-cjnZlvik8QZEkDk-32" edge="1">
          <mxGeometry relative="1" as="geometry" />
        </mxCell>
        <mxCell id="heNB-cjnZlvik8QZEkDk-31" value="Halaman login" style="rounded=0;whiteSpace=wrap;html=1;" parent="heNB-cjnZlvik8QZEkDk-29" vertex="1">
          <mxGeometry x="40" y="182" width="120" height="60" as="geometry" />
        </mxCell>
        <mxCell id="heNB-cjnZlvik8QZEkDk-32" value="Input username &amp;amp; password" style="rounded=0;whiteSpace=wrap;html=1;" parent="heNB-cjnZlvik8QZEkDk-29" vertex="1">
          <mxGeometry x="40" y="272" width="120" height="60" as="geometry" />
        </mxCell>
        <mxCell id="heNB-cjnZlvik8QZEkDk-45" style="edgeStyle=orthogonalEdgeStyle;rounded=0;orthogonalLoop=1;jettySize=auto;html=1;exitX=0.5;exitY=1;exitDx=0;exitDy=0;" parent="heNB-cjnZlvik8QZEkDk-29" source="heNB-cjnZlvik8QZEkDk-34" target="heNB-cjnZlvik8QZEkDk-36" edge="1">
          <mxGeometry relative="1" as="geometry" />
        </mxCell>
        <mxCell id="heNB-cjnZlvik8QZEkDk-34" value="" style="ellipse;html=1;shape=startState;fillColor=#000000;strokeColor=#ff0000;" parent="heNB-cjnZlvik8QZEkDk-29" vertex="1">
          <mxGeometry x="85" y="32" width="30" height="30" as="geometry" />
        </mxCell>
        <mxCell id="heNB-cjnZlvik8QZEkDk-35" style="edgeStyle=orthogonalEdgeStyle;rounded=0;orthogonalLoop=1;jettySize=auto;html=1;exitX=0.5;exitY=1;exitDx=0;exitDy=0;entryX=0.5;entryY=0;entryDx=0;entryDy=0;" parent="heNB-cjnZlvik8QZEkDk-29" source="heNB-cjnZlvik8QZEkDk-36" target="heNB-cjnZlvik8QZEkDk-31" edge="1">
          <mxGeometry relative="1" as="geometry" />
        </mxCell>
        <mxCell id="heNB-cjnZlvik8QZEkDk-36" value="Halaman awal" style="rounded=0;whiteSpace=wrap;html=1;" parent="heNB-cjnZlvik8QZEkDk-29" vertex="1">
          <mxGeometry x="40" y="92" width="120" height="60" as="geometry" />
        </mxCell>
        <mxCell id="heNB-cjnZlvik8QZEkDk-38" value="User dashboard" style="rounded=0;whiteSpace=wrap;html=1;" parent="heNB-cjnZlvik8QZEkDk-29" vertex="1">
          <mxGeometry x="40" y="628" width="120" height="60" as="geometry" />
        </mxCell>
        <mxCell id="heNB-cjnZlvik8QZEkDk-46" value="Halaman registrasi" style="rounded=0;whiteSpace=wrap;html=1;" parent="heNB-cjnZlvik8QZEkDk-29" vertex="1">
          <mxGeometry x="40" y="518" width="120" height="60" as="geometry" />
        </mxCell>
        <mxCell id="heNB-cjnZlvik8QZEkDk-49" value="Yes" style="edgeStyle=orthogonalEdgeStyle;rounded=0;orthogonalLoop=1;jettySize=auto;html=1;exitX=0.5;exitY=1;exitDx=0;exitDy=0;entryX=0.5;entryY=0;entryDx=0;entryDy=0;" parent="heNB-cjnZlvik8QZEkDk-29" source="heNB-cjnZlvik8QZEkDk-48" target="heNB-cjnZlvik8QZEkDk-46" edge="1">
          <mxGeometry relative="1" as="geometry" />
        </mxCell>
        <mxCell id="heNB-cjnZlvik8QZEkDk-52" value="No" style="edgeStyle=orthogonalEdgeStyle;rounded=0;orthogonalLoop=1;jettySize=auto;html=1;exitX=0;exitY=0.5;exitDx=0;exitDy=0;entryX=0;entryY=0.5;entryDx=0;entryDy=0;" parent="heNB-cjnZlvik8QZEkDk-29" source="heNB-cjnZlvik8QZEkDk-48" target="heNB-cjnZlvik8QZEkDk-31" edge="1">
          <mxGeometry relative="1" as="geometry" />
        </mxCell>
        <mxCell id="heNB-cjnZlvik8QZEkDk-48" value="Ingin buat akun?" style="rhombus;whiteSpace=wrap;html=1;" parent="heNB-cjnZlvik8QZEkDk-29" vertex="1">
          <mxGeometry x="60" y="398" width="80" height="80" as="geometry" />
        </mxCell>
        <mxCell id="heNB-cjnZlvik8QZEkDk-40" value="Sistem" style="swimlane;whiteSpace=wrap;html=1;startSize=23;" parent="1" vertex="1">
          <mxGeometry x="1320" y="296" width="200" height="748" as="geometry" />
        </mxCell>
        <mxCell id="heNB-cjnZlvik8QZEkDk-41" value="User valid?" style="rhombus;whiteSpace=wrap;html=1;" parent="heNB-cjnZlvik8QZEkDk-40" vertex="1">
          <mxGeometry x="60" y="332" width="80" height="80" as="geometry" />
        </mxCell>
        <mxCell id="heNB-cjnZlvik8QZEkDk-54" value="Data valid?" style="rhombus;whiteSpace=wrap;html=1;" parent="heNB-cjnZlvik8QZEkDk-40" vertex="1">
          <mxGeometry x="60" y="508" width="80" height="80" as="geometry" />
        </mxCell>
        <mxCell id="heNB-cjnZlvik8QZEkDk-42" style="edgeStyle=orthogonalEdgeStyle;rounded=0;orthogonalLoop=1;jettySize=auto;html=1;exitX=0.5;exitY=1;exitDx=0;exitDy=0;entryX=0;entryY=0.5;entryDx=0;entryDy=0;" parent="1" source="heNB-cjnZlvik8QZEkDk-32" target="heNB-cjnZlvik8QZEkDk-41" edge="1">
          <mxGeometry relative="1" as="geometry" />
        </mxCell>
        <mxCell id="heNB-cjnZlvik8QZEkDk-55" style="edgeStyle=orthogonalEdgeStyle;rounded=0;orthogonalLoop=1;jettySize=auto;html=1;exitX=1;exitY=0.5;exitDx=0;exitDy=0;entryX=0;entryY=0.5;entryDx=0;entryDy=0;" parent="1" source="heNB-cjnZlvik8QZEkDk-46" target="heNB-cjnZlvik8QZEkDk-54" edge="1">
          <mxGeometry relative="1" as="geometry" />
        </mxCell>
        <mxCell id="heNB-cjnZlvik8QZEkDk-57" value="Yes" style="edgeStyle=orthogonalEdgeStyle;rounded=0;orthogonalLoop=1;jettySize=auto;html=1;exitX=0.5;exitY=1;exitDx=0;exitDy=0;entryX=0.5;entryY=0;entryDx=0;entryDy=0;" parent="1" source="heNB-cjnZlvik8QZEkDk-54" target="heNB-cjnZlvik8QZEkDk-38" edge="1">
          <mxGeometry relative="1" as="geometry">
            <Array as="points">
              <mxPoint x="1420" y="894" />
              <mxPoint x="1220" y="894" />
            </Array>
          </mxGeometry>
        </mxCell>
        <mxCell id="heNB-cjnZlvik8QZEkDk-39" value="" style="ellipse;html=1;shape=endState;fillColor=#000000;strokeColor=#ff0000;" parent="1" vertex="1">
          <mxGeometry x="1209.5" y="1014" width="21" height="20" as="geometry" />
        </mxCell>
        <mxCell id="heNB-cjnZlvik8QZEkDk-37" style="edgeStyle=orthogonalEdgeStyle;rounded=0;orthogonalLoop=1;jettySize=auto;html=1;exitX=0.5;exitY=1;exitDx=0;exitDy=0;entryX=0.5;entryY=0;entryDx=0;entryDy=0;" parent="1" source="heNB-cjnZlvik8QZEkDk-38" target="heNB-cjnZlvik8QZEkDk-39" edge="1">
          <mxGeometry relative="1" as="geometry" />
        </mxCell>
        <mxCell id="heNB-cjnZlvik8QZEkDk-59" value="Yes" style="edgeStyle=orthogonalEdgeStyle;rounded=0;orthogonalLoop=1;jettySize=auto;html=1;exitX=1;exitY=0.5;exitDx=0;exitDy=0;entryX=0.5;entryY=0;entryDx=0;entryDy=0;" parent="1" source="heNB-cjnZlvik8QZEkDk-41" target="heNB-cjnZlvik8QZEkDk-38" edge="1">
          <mxGeometry relative="1" as="geometry">
            <Array as="points">
              <mxPoint x="1480" y="668" />
              <mxPoint x="1480" y="904" />
              <mxPoint x="1220" y="904" />
            </Array>
          </mxGeometry>
        </mxCell>
        <mxCell id="heNB-cjnZlvik8QZEkDk-60" style="edgeStyle=orthogonalEdgeStyle;rounded=0;orthogonalLoop=1;jettySize=auto;html=1;exitX=0.5;exitY=0;exitDx=0;exitDy=0;entryX=1;entryY=0.5;entryDx=0;entryDy=0;" parent="1" source="heNB-cjnZlvik8QZEkDk-54" target="heNB-cjnZlvik8QZEkDk-48" edge="1">
          <mxGeometry relative="1" as="geometry" />
        </mxCell>
        <mxCell id="heNB-cjnZlvik8QZEkDk-61" value="No" style="edgeStyle=orthogonalEdgeStyle;rounded=0;orthogonalLoop=1;jettySize=auto;html=1;exitX=0.5;exitY=1;exitDx=0;exitDy=0;entryX=1;entryY=0.5;entryDx=0;entryDy=0;" parent="1" source="heNB-cjnZlvik8QZEkDk-41" target="heNB-cjnZlvik8QZEkDk-48" edge="1">
          <mxGeometry relative="1" as="geometry" />
        </mxCell>
        <mxCell id="8sEm_yhT0wU4ozq4r_Tf-1" value="Manage" style="text;html=1;align=center;verticalAlign=middle;whiteSpace=wrap;rounded=0;fontSize=100;" vertex="1" parent="1">
          <mxGeometry x="675" y="1200" width="305" height="110" as="geometry" />
        </mxCell>
        <mxCell id="8sEm_yhT0wU4ozq4r_Tf-20" value="Admin" style="text;html=1;align=center;verticalAlign=middle;whiteSpace=wrap;rounded=0;fontSize=50;" vertex="1" parent="1">
          <mxGeometry x="752" y="1350" width="150" height="70" as="geometry" />
        </mxCell>
        <mxCell id="8sEm_yhT0wU4ozq4r_Tf-21" value="" style="shape=ellipse;fillColor=#0065FF;strokeColor=none;html=1;sketch=0;" vertex="1" parent="1">
          <mxGeometry x="1019" y="1420" width="10" height="10" as="geometry" />
        </mxCell>
        <mxCell id="8sEm_yhT0wU4ozq4r_Tf-22" value="Admin" style="swimlane;whiteSpace=wrap;html=1;" vertex="1" parent="1">
          <mxGeometry x="625" y="1430" width="200" height="540" as="geometry" />
        </mxCell>
        <mxCell id="8sEm_yhT0wU4ozq4r_Tf-41" style="edgeStyle=orthogonalEdgeStyle;rounded=0;orthogonalLoop=1;jettySize=auto;html=1;exitX=0.5;exitY=1;exitDx=0;exitDy=0;entryX=0.5;entryY=0;entryDx=0;entryDy=0;" edge="1" parent="8sEm_yhT0wU4ozq4r_Tf-22" source="8sEm_yhT0wU4ozq4r_Tf-23" target="8sEm_yhT0wU4ozq4r_Tf-38">
          <mxGeometry relative="1" as="geometry" />
        </mxCell>
        <mxCell id="8sEm_yhT0wU4ozq4r_Tf-23" value="pilih menu manage" style="rounded=0;whiteSpace=wrap;html=1;" vertex="1" parent="8sEm_yhT0wU4ozq4r_Tf-22">
          <mxGeometry x="40" y="180" width="120" height="60" as="geometry" />
        </mxCell>
        <mxCell id="8sEm_yhT0wU4ozq4r_Tf-24" style="edgeStyle=orthogonalEdgeStyle;rounded=0;orthogonalLoop=1;jettySize=auto;html=1;exitX=0.5;exitY=1;exitDx=0;exitDy=0;entryX=0.5;entryY=0;entryDx=0;entryDy=0;" edge="1" parent="8sEm_yhT0wU4ozq4r_Tf-22" source="8sEm_yhT0wU4ozq4r_Tf-25" target="8sEm_yhT0wU4ozq4r_Tf-27">
          <mxGeometry relative="1" as="geometry" />
        </mxCell>
        <mxCell id="8sEm_yhT0wU4ozq4r_Tf-25" value="" style="ellipse;html=1;shape=startState;fillColor=#000000;strokeColor=#ff0000;" vertex="1" parent="8sEm_yhT0wU4ozq4r_Tf-22">
          <mxGeometry x="85" y="32" width="30" height="30" as="geometry" />
        </mxCell>
        <mxCell id="8sEm_yhT0wU4ozq4r_Tf-26" style="edgeStyle=orthogonalEdgeStyle;rounded=0;orthogonalLoop=1;jettySize=auto;html=1;exitX=0.5;exitY=1;exitDx=0;exitDy=0;entryX=0.5;entryY=0;entryDx=0;entryDy=0;" edge="1" parent="8sEm_yhT0wU4ozq4r_Tf-22" source="8sEm_yhT0wU4ozq4r_Tf-27" target="8sEm_yhT0wU4ozq4r_Tf-23">
          <mxGeometry relative="1" as="geometry" />
        </mxCell>
        <mxCell id="8sEm_yhT0wU4ozq4r_Tf-27" value="login" style="rounded=0;whiteSpace=wrap;html=1;" vertex="1" parent="8sEm_yhT0wU4ozq4r_Tf-22">
          <mxGeometry x="40" y="92" width="120" height="60" as="geometry" />
        </mxCell>
        <mxCell id="8sEm_yhT0wU4ozq4r_Tf-38" value="manage data" style="rounded=0;whiteSpace=wrap;html=1;" vertex="1" parent="8sEm_yhT0wU4ozq4r_Tf-22">
          <mxGeometry x="40" y="280" width="120" height="60" as="geometry" />
        </mxCell>
        <mxCell id="8sEm_yhT0wU4ozq4r_Tf-31" value="Sistem" style="swimlane;whiteSpace=wrap;html=1;startSize=23;" vertex="1" parent="1">
          <mxGeometry x="825" y="1430" width="200" height="540" as="geometry" />
        </mxCell>
        <mxCell id="8sEm_yhT0wU4ozq4r_Tf-43" value="Yes" style="edgeStyle=orthogonalEdgeStyle;rounded=0;orthogonalLoop=1;jettySize=auto;html=1;exitX=0.5;exitY=1;exitDx=0;exitDy=0;entryX=0.5;entryY=0;entryDx=0;entryDy=0;" edge="1" parent="8sEm_yhT0wU4ozq4r_Tf-31" source="8sEm_yhT0wU4ozq4r_Tf-32" target="8sEm_yhT0wU4ozq4r_Tf-29">
          <mxGeometry relative="1" as="geometry" />
        </mxCell>
        <mxCell id="8sEm_yhT0wU4ozq4r_Tf-32" value="data valid?" style="rhombus;whiteSpace=wrap;html=1;" vertex="1" parent="8sEm_yhT0wU4ozq4r_Tf-31">
          <mxGeometry x="60" y="270" width="80" height="80" as="geometry" />
        </mxCell>
        <mxCell id="8sEm_yhT0wU4ozq4r_Tf-29" value="simpan" style="rounded=0;whiteSpace=wrap;html=1;" vertex="1" parent="8sEm_yhT0wU4ozq4r_Tf-31">
          <mxGeometry x="40" y="390" width="120" height="60" as="geometry" />
        </mxCell>
        <mxCell id="8sEm_yhT0wU4ozq4r_Tf-30" value="" style="ellipse;html=1;shape=endState;fillColor=#000000;strokeColor=#ff0000;" vertex="1" parent="8sEm_yhT0wU4ozq4r_Tf-31">
          <mxGeometry x="89.5" y="490" width="21" height="20" as="geometry" />
        </mxCell>
        <mxCell id="8sEm_yhT0wU4ozq4r_Tf-28" style="edgeStyle=orthogonalEdgeStyle;rounded=0;orthogonalLoop=1;jettySize=auto;html=1;exitX=0.5;exitY=1;exitDx=0;exitDy=0;entryX=0.5;entryY=0;entryDx=0;entryDy=0;" edge="1" parent="8sEm_yhT0wU4ozq4r_Tf-31" source="8sEm_yhT0wU4ozq4r_Tf-29" target="8sEm_yhT0wU4ozq4r_Tf-30">
          <mxGeometry relative="1" as="geometry" />
        </mxCell>
        <mxCell id="8sEm_yhT0wU4ozq4r_Tf-42" style="edgeStyle=orthogonalEdgeStyle;rounded=0;orthogonalLoop=1;jettySize=auto;html=1;exitX=1;exitY=0.5;exitDx=0;exitDy=0;entryX=0;entryY=0.5;entryDx=0;entryDy=0;" edge="1" parent="1" source="8sEm_yhT0wU4ozq4r_Tf-38" target="8sEm_yhT0wU4ozq4r_Tf-32">
          <mxGeometry relative="1" as="geometry" />
        </mxCell>
        <mxCell id="8sEm_yhT0wU4ozq4r_Tf-44" value="No" style="edgeStyle=orthogonalEdgeStyle;rounded=0;orthogonalLoop=1;jettySize=auto;html=1;exitX=0.5;exitY=0;exitDx=0;exitDy=0;entryX=0.5;entryY=0;entryDx=0;entryDy=0;" edge="1" parent="1" source="8sEm_yhT0wU4ozq4r_Tf-32" target="8sEm_yhT0wU4ozq4r_Tf-38">
          <mxGeometry relative="1" as="geometry">
            <Array as="points">
              <mxPoint x="925" y="1690" />
              <mxPoint x="725" y="1690" />
            </Array>
          </mxGeometry>
        </mxCell>
        <mxCell id="OrInavjSQ8dT8gGmadys-1" value="Logout" style="text;html=1;align=center;verticalAlign=middle;whiteSpace=wrap;rounded=0;fontSize=100;" vertex="1" parent="1">
          <mxGeometry x="2329" y="20" width="305" height="110" as="geometry" />
        </mxCell>
        <mxCell id="OrInavjSQ8dT8gGmadys-2" value="Admin &amp;amp; User" style="text;html=1;align=center;verticalAlign=middle;whiteSpace=wrap;rounded=0;fontSize=50;" vertex="1" parent="1">
          <mxGeometry x="2304" y="160" width="354" height="70" as="geometry" />
        </mxCell>
        <mxCell id="OrInavjSQ8dT8gGmadys-3" value="" style="shape=ellipse;fillColor=#0065FF;strokeColor=none;html=1;sketch=0;" vertex="1" parent="1">
          <mxGeometry x="2673" y="240" width="10" height="10" as="geometry" />
        </mxCell>
        <mxCell id="OrInavjSQ8dT8gGmadys-4" value="Admin &amp;amp; User" style="swimlane;whiteSpace=wrap;html=1;" vertex="1" parent="1">
          <mxGeometry x="2381.5" y="250" width="200" height="420" as="geometry" />
        </mxCell>
        <mxCell id="OrInavjSQ8dT8gGmadys-5" style="edgeStyle=orthogonalEdgeStyle;rounded=0;orthogonalLoop=1;jettySize=auto;html=1;exitX=0.5;exitY=1;exitDx=0;exitDy=0;entryX=0.5;entryY=0;entryDx=0;entryDy=0;" edge="1" parent="OrInavjSQ8dT8gGmadys-4" source="OrInavjSQ8dT8gGmadys-6" target="OrInavjSQ8dT8gGmadys-11">
          <mxGeometry relative="1" as="geometry" />
        </mxCell>
        <mxCell id="OrInavjSQ8dT8gGmadys-6" value="klik menu logout" style="rounded=0;whiteSpace=wrap;html=1;" vertex="1" parent="OrInavjSQ8dT8gGmadys-4">
          <mxGeometry x="40" y="190" width="120" height="60" as="geometry" />
        </mxCell>
        <mxCell id="OrInavjSQ8dT8gGmadys-7" style="edgeStyle=orthogonalEdgeStyle;rounded=0;orthogonalLoop=1;jettySize=auto;html=1;exitX=0.5;exitY=1;exitDx=0;exitDy=0;entryX=0.5;entryY=0;entryDx=0;entryDy=0;" edge="1" parent="OrInavjSQ8dT8gGmadys-4" source="OrInavjSQ8dT8gGmadys-8" target="OrInavjSQ8dT8gGmadys-10">
          <mxGeometry relative="1" as="geometry" />
        </mxCell>
        <mxCell id="OrInavjSQ8dT8gGmadys-8" value="" style="ellipse;html=1;shape=startState;fillColor=#000000;strokeColor=#ff0000;" vertex="1" parent="OrInavjSQ8dT8gGmadys-4">
          <mxGeometry x="85" y="32" width="30" height="30" as="geometry" />
        </mxCell>
        <mxCell id="OrInavjSQ8dT8gGmadys-9" style="edgeStyle=orthogonalEdgeStyle;rounded=0;orthogonalLoop=1;jettySize=auto;html=1;exitX=0.5;exitY=1;exitDx=0;exitDy=0;entryX=0.5;entryY=0;entryDx=0;entryDy=0;" edge="1" parent="OrInavjSQ8dT8gGmadys-4" source="OrInavjSQ8dT8gGmadys-10" target="OrInavjSQ8dT8gGmadys-6">
          <mxGeometry relative="1" as="geometry" />
        </mxCell>
        <mxCell id="OrInavjSQ8dT8gGmadys-10" value="Main dashboard" style="rounded=0;whiteSpace=wrap;html=1;" vertex="1" parent="OrInavjSQ8dT8gGmadys-4">
          <mxGeometry x="40" y="92" width="120" height="60" as="geometry" />
        </mxCell>
        <mxCell id="OrInavjSQ8dT8gGmadys-20" style="edgeStyle=orthogonalEdgeStyle;rounded=0;orthogonalLoop=1;jettySize=auto;html=1;exitX=0.5;exitY=1;exitDx=0;exitDy=0;entryX=0.5;entryY=0;entryDx=0;entryDy=0;" edge="1" parent="OrInavjSQ8dT8gGmadys-4" source="OrInavjSQ8dT8gGmadys-11" target="OrInavjSQ8dT8gGmadys-16">
          <mxGeometry relative="1" as="geometry" />
        </mxCell>
        <mxCell id="OrInavjSQ8dT8gGmadys-11" value="Halaman awal" style="rounded=0;whiteSpace=wrap;html=1;" vertex="1" parent="OrInavjSQ8dT8gGmadys-4">
          <mxGeometry x="40" y="280" width="120" height="60" as="geometry" />
        </mxCell>
        <mxCell id="OrInavjSQ8dT8gGmadys-16" value="" style="ellipse;html=1;shape=endState;fillColor=#000000;strokeColor=#ff0000;" vertex="1" parent="OrInavjSQ8dT8gGmadys-4">
          <mxGeometry x="89.5" y="378" width="21" height="20" as="geometry" />
        </mxCell>
        <mxCell id="OrInavjSQ8dT8gGmadys-21" value="Order" style="text;html=1;align=center;verticalAlign=middle;whiteSpace=wrap;rounded=0;fontSize=100;" vertex="1" parent="1">
          <mxGeometry x="2526" y="1200" width="305" height="110" as="geometry" />
        </mxCell>
        <mxCell id="OrInavjSQ8dT8gGmadys-22" value="User" style="text;html=1;align=center;verticalAlign=middle;whiteSpace=wrap;rounded=0;fontSize=50;" vertex="1" parent="1">
          <mxGeometry x="2603" y="1350" width="150" height="70" as="geometry" />
        </mxCell>
        <mxCell id="OrInavjSQ8dT8gGmadys-23" value="" style="shape=ellipse;fillColor=#0065FF;strokeColor=none;html=1;sketch=0;" vertex="1" parent="1">
          <mxGeometry x="2870" y="1420" width="10" height="10" as="geometry" />
        </mxCell>
        <mxCell id="OrInavjSQ8dT8gGmadys-24" value="User" style="swimlane;whiteSpace=wrap;html=1;" vertex="1" parent="1">
          <mxGeometry x="2476" y="1430" width="200" height="540" as="geometry" />
        </mxCell>
        <mxCell id="OrInavjSQ8dT8gGmadys-25" style="edgeStyle=orthogonalEdgeStyle;rounded=0;orthogonalLoop=1;jettySize=auto;html=1;exitX=0.5;exitY=1;exitDx=0;exitDy=0;entryX=0.5;entryY=0;entryDx=0;entryDy=0;" edge="1" parent="OrInavjSQ8dT8gGmadys-24" source="OrInavjSQ8dT8gGmadys-26" target="OrInavjSQ8dT8gGmadys-31">
          <mxGeometry relative="1" as="geometry" />
        </mxCell>
        <mxCell id="OrInavjSQ8dT8gGmadys-26" value="lihat produk" style="rounded=0;whiteSpace=wrap;html=1;" vertex="1" parent="OrInavjSQ8dT8gGmadys-24">
          <mxGeometry x="40" y="180" width="120" height="60" as="geometry" />
        </mxCell>
        <mxCell id="OrInavjSQ8dT8gGmadys-27" style="edgeStyle=orthogonalEdgeStyle;rounded=0;orthogonalLoop=1;jettySize=auto;html=1;exitX=0.5;exitY=1;exitDx=0;exitDy=0;entryX=0.5;entryY=0;entryDx=0;entryDy=0;" edge="1" parent="OrInavjSQ8dT8gGmadys-24" source="OrInavjSQ8dT8gGmadys-28" target="OrInavjSQ8dT8gGmadys-30">
          <mxGeometry relative="1" as="geometry" />
        </mxCell>
        <mxCell id="OrInavjSQ8dT8gGmadys-28" value="" style="ellipse;html=1;shape=startState;fillColor=#000000;strokeColor=#ff0000;" vertex="1" parent="OrInavjSQ8dT8gGmadys-24">
          <mxGeometry x="85" y="32" width="30" height="30" as="geometry" />
        </mxCell>
        <mxCell id="OrInavjSQ8dT8gGmadys-29" style="edgeStyle=orthogonalEdgeStyle;rounded=0;orthogonalLoop=1;jettySize=auto;html=1;exitX=0.5;exitY=1;exitDx=0;exitDy=0;entryX=0.5;entryY=0;entryDx=0;entryDy=0;" edge="1" parent="OrInavjSQ8dT8gGmadys-24" source="OrInavjSQ8dT8gGmadys-30" target="OrInavjSQ8dT8gGmadys-26">
          <mxGeometry relative="1" as="geometry" />
        </mxCell>
        <mxCell id="OrInavjSQ8dT8gGmadys-30" value="login" style="rounded=0;whiteSpace=wrap;html=1;" vertex="1" parent="OrInavjSQ8dT8gGmadys-24">
          <mxGeometry x="40" y="92" width="120" height="60" as="geometry" />
        </mxCell>
        <mxCell id="OrInavjSQ8dT8gGmadys-31" value="pilih produk" style="rounded=0;whiteSpace=wrap;html=1;" vertex="1" parent="OrInavjSQ8dT8gGmadys-24">
          <mxGeometry x="40" y="280" width="120" height="60" as="geometry" />
        </mxCell>
        <mxCell id="OrInavjSQ8dT8gGmadys-32" value="Sistem" style="swimlane;whiteSpace=wrap;html=1;startSize=23;" vertex="1" parent="1">
          <mxGeometry x="2676" y="1430" width="200" height="540" as="geometry" />
        </mxCell>
        <mxCell id="OrInavjSQ8dT8gGmadys-33" value="Yes" style="edgeStyle=orthogonalEdgeStyle;rounded=0;orthogonalLoop=1;jettySize=auto;html=1;exitX=0.5;exitY=1;exitDx=0;exitDy=0;entryX=0.5;entryY=0;entryDx=0;entryDy=0;" edge="1" parent="OrInavjSQ8dT8gGmadys-32" source="OrInavjSQ8dT8gGmadys-34" target="OrInavjSQ8dT8gGmadys-35">
          <mxGeometry relative="1" as="geometry" />
        </mxCell>
        <mxCell id="OrInavjSQ8dT8gGmadys-34" value="ingin membeli?" style="rhombus;whiteSpace=wrap;html=1;" vertex="1" parent="OrInavjSQ8dT8gGmadys-32">
          <mxGeometry x="60" y="270" width="80" height="80" as="geometry" />
        </mxCell>
        <mxCell id="OrInavjSQ8dT8gGmadys-35" value="create order" style="rounded=0;whiteSpace=wrap;html=1;" vertex="1" parent="OrInavjSQ8dT8gGmadys-32">
          <mxGeometry x="40" y="400" width="120" height="60" as="geometry" />
        </mxCell>
        <mxCell id="OrInavjSQ8dT8gGmadys-36" value="" style="ellipse;html=1;shape=endState;fillColor=#000000;strokeColor=#ff0000;" vertex="1" parent="OrInavjSQ8dT8gGmadys-32">
          <mxGeometry x="89.5" y="490" width="21" height="20" as="geometry" />
        </mxCell>
        <mxCell id="OrInavjSQ8dT8gGmadys-37" style="edgeStyle=orthogonalEdgeStyle;rounded=0;orthogonalLoop=1;jettySize=auto;html=1;exitX=0.5;exitY=1;exitDx=0;exitDy=0;entryX=0.5;entryY=0;entryDx=0;entryDy=0;" edge="1" parent="OrInavjSQ8dT8gGmadys-32" source="OrInavjSQ8dT8gGmadys-35" target="OrInavjSQ8dT8gGmadys-36">
          <mxGeometry relative="1" as="geometry" />
        </mxCell>
        <mxCell id="OrInavjSQ8dT8gGmadys-40" style="edgeStyle=orthogonalEdgeStyle;rounded=0;orthogonalLoop=1;jettySize=auto;html=1;exitX=1;exitY=0.5;exitDx=0;exitDy=0;entryX=0;entryY=0.5;entryDx=0;entryDy=0;" edge="1" parent="1" source="OrInavjSQ8dT8gGmadys-31" target="OrInavjSQ8dT8gGmadys-34">
          <mxGeometry relative="1" as="geometry" />
        </mxCell>
        <mxCell id="OrInavjSQ8dT8gGmadys-41" value="No" style="edgeStyle=orthogonalEdgeStyle;rounded=0;orthogonalLoop=1;jettySize=auto;html=1;exitX=0.5;exitY=0;exitDx=0;exitDy=0;entryX=1;entryY=0.5;entryDx=0;entryDy=0;" edge="1" parent="1" source="OrInavjSQ8dT8gGmadys-34" target="OrInavjSQ8dT8gGmadys-26">
          <mxGeometry relative="1" as="geometry" />
        </mxCell>
      </root>
    </mxGraphModel>
  </diagram>
</mxfile>
